HIERARCHY
ROOT pelvis
{
  OFFSET 0 0 0
  CHANNELS 6 Xposition Yposition Zposition Zrotation Xrotation Yrotation
  JOINT pelvis_right_femur
  {
    OFFSET -11.43119 -3.542788 0.2090856
    CHANNELS 3 Zrotation Xrotation Yrotation
    JOINT right_femur_tibia
    {
      OFFSET -1.028693 -40.73281 5
      CHANNELS 3 Zrotation Xrotation Yrotation
      JOINT right_tibia_foot
      {
        OFFSET -0.5013517 -42.05707 -5
        CHANNELS 3 Zrotation Xrotation Yrotation
        End Site
        {
          OFFSET 0 -5 10
        }
      }
    }
  }
  JOINT pelvis_left_femur
  {
    OFFSET 11.43119 -3.542788 0.2090856
    CHANNELS 3 Zrotation Xrotation Yrotation
    JOINT left_femur_tibia
    {
      OFFSET 1.028693 -40.73281 5
      CHANNELS 3 Zrotation Xrotation Yrotation
      JOINT left_tibia_foot
      {
        OFFSET 0.3200228 -42.98253 -5
        CHANNELS 3 Zrotation Xrotation Yrotation
        End Site
        {
          OFFSET 0 -5 10
        }
      }
    }
  }
  JOINT pelvis_spine1
  {
    OFFSET 0 8.64413 -3.209807
    CHANNELS 3 Zrotation Xrotation Yrotation
    JOINT spine1
    {
      OFFSET 0 29.53957 -1.762685
      CHANNELS 3 Zrotation Xrotation Yrotation
      JOINT spine2
      {
        OFFSET 0 16.36153 -0.1422377
        CHANNELS 3 Zrotation Xrotation Yrotation
        JOINT neck
        {
          OFFSET 0 11.60093 5
          CHANNELS 3 Zrotation Xrotation Yrotation
          End Site
          {
            OFFSET 0 20 0
          }
        }
      }
      JOINT right_manubrium
      {
        OFFSET -4.671311 15.89868 4
        CHANNELS 3 Zrotation Xrotation Yrotation
        JOINT right_clavicle
        {
          OFFSET -13.601 1.573642 -2.74176
          CHANNELS 3 Zrotation Xrotation Yrotation
          JOINT right_humerus
          {
            OFFSET -0.06331682 -27.72702 2.252146
            CHANNELS 3 Zrotation Xrotation Yrotation
            JOINT right_radius
            {
              OFFSET -0.5696302 -23.92083 0.4042105
              CHANNELS 3 Zrotation Xrotation Yrotation
              End Site
              {
                OFFSET 0 -15 0
              }
            }
          }
        }
      }
      JOINT left_manubrium
      {
        OFFSET 4.671311 15.89868 4
        CHANNELS 3 Zrotation Xrotation Yrotation
        JOINT left_clavicle
        {
          OFFSET 13.601 1.573642 -2.74176
          CHANNELS 3 Zrotation Xrotation Yrotation
          JOINT left_humerus
          {
            OFFSET 0.000209614 -29.01858 1.101395
            CHANNELS 3 Zrotation Xrotation Yrotation
            JOINT left_radius
            {
              OFFSET -0.2288314 -24.59216 1.790347
              CHANNELS 3 Zrotation Xrotation Yrotation
              End Site
              {
                OFFSET 0 -15 0
              }
            }
          }
        }
      }
    }
  }
}
MOTION
Frames: 13
Frame Time: 0.0416666666667
-0.1363968 47.86592 -0.08923154 -2.857349 -22.08771 -1.075364 -52.26593 -58.49949 -40.11087 -180 81.02786 -180 10.84647 2.146662 3.096865 62.50846 -49.90292 50.58239 -180 72.1867 -180 -6.969029 -7.324929 -13.14816 -0.2949561 17.11746 4.697924 9.232284 14.47237 -8.569041 -13.05484 6.181968 11.51408 1.923973 -33.93003 1.927092 17.97541 -6.423075 30.62841 -59.55965 -34.97533 18.99228 0 -70.96444 0 3.528814 -16.28771 2.585716 -26.3261 -33.19194 -2.318985 50.68803 -25.29731 -27.25544 0 -72.82796 0 -12.60988 -15.76229 12.39429
-0.1322996 47.88454 -0.09427321 -2.914787 -22.1004 -0.9347122 -52.14137 -58.39384 -40.01238 -180 81.05039 -180 10.83817 2.115564 3.032114 62.56391 -49.97096 50.61274 -180 72.21494 -180 -6.957555 -7.276717 -13.2134 -0.1860636 17.18008 4.781451 8.909054 14.51513 -8.404213 -13.04479 6.514758 12.99154 1.960291 -33.57259 4.196369 17.68222 -6.561103 30.28558 -59.8569 -35.41186 19.32868 0 -71.46463 0 4.848937 -15.75473 3.549841 -25.29551 -32.92058 -1.429795 52.36651 -24.21259 -25.94728 0 -73.20688 0 -12.62441 -16.51578 12.98589
-0.1147751 47.89692 -0.1074043 -2.991124 -22.11204 -0.9325745 -51.93748 -58.38918 -39.86028 -180 81.09928 -180 10.82915 2.115516 2.972845 62.6671 -49.95436 50.67193 -180 72.2117 -180 -6.956665 -7.240191 -13.25001 -0.05657887 17.26958 4.706971 8.575178 14.66881 -8.191733 -13.43522 6.926525 15.51705 2.059725 -33.08235 7.763813 17.55883 -7.061981 29.23338 -60.35095 -35.59461 19.07142 0 -72.05671 0 5.959827 -15.27611 4.534744 -23.98938 -32.80482 -0.2939968 54.45601 -22.84494 -24.27259 0 -73.06656 0 -12.75679 -17.20654 13.4509
-0.101299 47.91668 -0.1415503 -3.078226 -22.08445 -1.044649 -51.75272 -58.46874 -39.76001 -180 81.1838 -180 10.8137 2.14887 2.93804 62.79764 -49.91064 50.75261 -180 72.23164 -180 -6.965326 -7.215193 -13.24443 0.06584771 17.41851 4.548795 8.242055 14.91343 -7.922847 -14.12926 7.368438 18.87018 2.205908 -32.43954 12.335 17.47112 -7.809048 27.55254 -61.07871 -35.40626 18.32278 0 -72.49195 0 6.863878 -14.79222 5.502474 -22.45157 -32.97405 0.982611 56.86955 -21.29477 -22.23179 0 -72.14749 0 -12.9301 -17.78916 13.83258
-0.1148611 47.93493 -0.1983235 -3.182535 -22.0282 -1.216625 -51.59492 -58.59913 -39.76955 -180 81.2916 -180 10.79583 2.20892 2.941732 62.99211 -49.8746 50.85782 -180 72.26238 -180 -6.979038 -7.198416 -13.20473 0.1130567 17.65389 4.357218 7.942297 15.17179 -7.693935 -14.85135 7.827422 22.37057 2.38256 -31.67259 17.04754 17.31431 -8.622543 25.60753 -61.9678 -34.86617 17.3181 0 -72.65428 0 7.597048 -14.28652 6.447167 -20.80682 -33.52489 2.241831 59.41778 -19.70089 -19.90778 0 -70.24342 0 -13.09404 -18.23625 14.1787
-0.1544708 47.93648 -0.2639496 -3.311986 -21.94111 -1.41704 -51.48449 -58.75202 -39.92584 -180 81.38751 -180 10.78292 2.289106 2.977921 63.27057 -49.86753 50.98095 -180 72.27646 -180 -6.994644 -7.196711 -13.1426 0.03825811 17.98669 4.198969 7.678932 15.36377 -7.544183 -15.33255 8.254879 25.34922 2.585769 -30.862 21.06945 17.07031 -9.303166 23.80907 -62.8686 -34.05328 16.32988 0 -72.35272 0 8.247253 -13.73284 7.337772 -19.20186 -34.42538 3.383519 61.84189 -18.14032 -17.44877 0 -67.3801 0 -13.24291 -18.54013 14.52616
-0.1977368 47.92482 -0.3357955 -3.471775 -21.80349 -1.647312 -51.50961 -58.9215 -40.2471 -180 81.45981 -180 10.76823 2.37652 3.049212 63.63985 -49.89315 51.16028 -180 72.27533 -180 -7.016502 -7.214323 -13.07423 -0.1602174 18.40439 4.082517 7.501031 15.41001 -7.473712 -15.50997 8.595289 27.48358 2.763953 -30.122 24.00111 16.84191 -9.700263 22.4077 -63.6033 -33.07106 15.5512 0 -71.53635 0 8.864282 -13.11797 8.144903 -17.69028 -35.68829 4.291864 64.02605 -16.71324 -14.91498 0 -63.62004 0 -13.38896 -18.70863 14.87854
-0.2305764 47.93354 -0.328519 -3.653731 -21.62523 -1.875479 -51.59792 -59.04737 -40.66336 -180 81.51141 -180 10.75009 2.441559 3.155994 64.03407 -49.89775 51.35169 -180 72.24243 -180 -7.041622 -7.261182 -13.03404 -0.4608998 18.76138 4.050028 7.469897 15.38911 -7.526663 -15.42657 8.8388 28.83689 2.923738 -29.55486 25.93768 16.74999 -9.806193 21.49321 -64.07915 -32.05744 15.02332 0 -70.40402 0 9.440897 -12.49615 8.875574 -16.3873 -37.2394 4.808723 65.89876 -15.46565 -12.41369 0 -58.97222 0 -13.58551 -18.74494 15.2418
-0.2569296 47.93827 -0.2669011 -3.847814 -21.41769 -2.055408 -51.72711 -59.11729 -41.11708 -180 81.53915 -180 10.73486 2.471472 3.283398 64.50721 -49.88745 51.60583 -180 72.16963 -180 -7.065978 -7.336854 -13.0454 -0.8684776 19.06297 4.094348 7.627396 15.31399 -7.714713 -15.17381 9.001923 29.68247 3.110232 -29.15568 27.21933 16.84495 -9.74008 21.011 -64.31117 -31.12017 14.64392 0 -69.2228 0 9.950024 -11.93067 9.537314 -15.31595 -38.9366 4.816986 67.46127 -14.4587 -10.08054 0 -53.65577 0 -13.88842 -18.66144 15.59878
-0.2328121 47.9607 -0.1482799 -4.054178 -21.18562 -2.179271 -51.87402 -59.11085 -41.55774 -180 81.54189 -180 10.72446 2.467985 3.399522 64.99462 -49.85399 51.91346 -180 72.05233 -180 -7.088823 -7.433126 -13.12895 -1.322352 19.28489 4.185694 8.013261 15.28436 -8.036756 -14.84403 9.083259 30.27249 3.340473 -28.90907 28.14587 17.14723 -9.623618 20.77994 -64.36542 -30.25381 14.24727 0 -68.20011 0 10.35673 -11.47951 10.11915 -14.45791 -40.60974 4.392442 68.73227 -13.65314 -8.002022 0 -48.01428 0 -14.31505 -18.47731 15.91955
-0.1922404 47.9533 -0.03116685 -4.265002 -20.95091 -2.242289 -52.03386 -59.11216 -41.96615 -180 81.54433 -180 10.72325 2.445492 3.478957 65.56037 -49.83658 52.33404 -180 71.91725 -180 -7.111132 -7.538196 -13.26694 -1.790341 19.55449 4.241963 8.546629 15.25605 -8.398637 -14.51124 9.091157 30.75596 3.5954 -28.76396 28.88833 17.5963 -9.528744 20.63501 -64.27554 -29.48382 13.79859 0 -67.56433 0 10.63397 -11.19384 10.66556 -13.67321 -42.12376 3.789699 69.75827 -12.99995 -6.206891 0 -42.53967 0 -14.84669 -18.29197 16.15752
-0.1165933 47.96852 0.05729179 -4.507316 -20.70585 -2.293205 -52.07457 -59.12821 -42.23053 -180 81.59431 -180 10.72467 2.418259 3.514791 66.13447 -49.8188 52.80263 -180 71.80396 -180 -7.1296 -7.643251 -13.43004 -2.295927 19.79885 4.165633 9.156273 15.17918 -8.796513 -14.17591 9.194012 31.19384 3.917938 -28.62963 29.54802 18.21568 -9.617387 20.5428 -64.04644 -29.04758 13.24465 0 -67.81077 0 10.73655 -11.16899 11.27976 -12.90637 -43.46092 3.215296 70.59725 -12.42208 -4.639666 0 -37.43159 0 -15.39943 -18.13108 16.3061
-0.02883074 48.01512 0.1175139 -4.751078 -20.43994 -2.303381 -52.00368 -59.16584 -42.3546 -180 81.69311 -180 10.72976 2.386922 3.490779 66.6961 -49.81583 53.3046 -180 71.73933 -180 -7.146803 -7.744015 -13.60085 -2.745033 20.04964 4.034029 9.686592 15.09749 -9.153331 -13.86226 9.365546 31.53203 4.253023 -28.4875 30.05122 18.80218 -9.739237 20.514 -63.74248 -28.80606 12.75366 0 -68.48674 0 10.79191 -11.25385 11.92464 -12.27654 -44.70271 2.632652 71.20168 -11.9979 -3.243388 0 -32.91657 0 -15.87443 -17.99365 16.37636
